<?xml version="1.0" encoding="utf-8"?>
<!-- Generator: Adobe Illustrator 21.0.2, SVG Export Plug-In . SVG Version: 6.00 Build 0)  -->
<svg version="1.1" xmlns="http://www.w3.org/2000/svg" xmlns:xlink="http://www.w3.org/1999/xlink" x="0px" y="0px"
	 viewBox="0 0 1000 1000" style="enable-background:new 0 0 1000 1000;" xml:space="preserve">
<style type="text/css">
	.st0{clip-path:url(#SVGID_2_);}
	.st1{fill:url(#SVGID_3_);}
	.st2{fill:#FFFFFF;}
</style>
<g id="Layer_2">
</g>
<g id="Layer_1">
	<g>
		<defs>
			<path id="SVGID_1_" d="M180.2,785.7h-10l0-571.5h10L180.2,785.7z M517.9,494.9H180v10h337.9V494.9z M547,790.6h129.6l0.4,0
				c46.6-3.4,86-18.2,117.1-44c31.2-26,51.5-61.4,61.8-108.3c9.1-41.1,9.7-85.8,10.4-129.1c0.6-44.2,1.4-94.2-7.7-139.7
				c-10.3-51.8-32-90.3-66.1-117.8c-35.4-28.4-82.6-43.1-136.5-42.4H512.8v581.3h5.4c0.2,0,3.1,0,8.1,0
				C531.2,790.6,538.3,790.6,547,790.6z M522.8,219.3l133.1,0c51.6-0.6,96.6,13.3,130.2,40.2c72.9,58.5,71.4,160,70.1,249.5
				c-1.3,86-2.5,175-68.6,229.8c-29.4,24.4-66.8,38.4-111.2,41.7H547c-10.8,0-19.3,0-24.2,0V219.3z M693.2,956.5
				c59-25,112-60.7,157.5-106.2c45.5-45.5,81.2-98.5,106.2-157.5c25.8-61.1,38.9-126,38.9-192.9S982.7,368.1,956.9,307
				c-25-59-60.7-112-106.2-157.5C805.2,104,752.2,68.3,693.2,43.4c-61.1-25.8-126-38.9-192.9-38.9c-66.9,0-131.8,13.1-192.9,38.9
				c-59,25-112,60.7-157.5,106.2C104.5,195,68.7,248,43.8,307C18,368.1,4.8,433,4.8,499.9S18,631.7,43.8,692.8
				c25,59,60.7,112,106.2,157.5c45.5,45.5,98.5,81.2,157.5,106.2c61.1,25.8,126,38.9,192.9,38.9
				C567.2,995.4,632.1,982.3,693.2,956.5z M985.8,499.9c0,267.7-217.8,485.5-485.5,485.5c-267.7,0-485.5-217.8-485.5-485.5
				c0-267.7,217.8-485.5,485.5-485.5C768.1,14.4,985.8,232.2,985.8,499.9z"/>
		</defs>
		<clipPath id="SVGID_2_">
			<use xlink:href="#SVGID_1_"  style="overflow:visible;"/>
		</clipPath>
		<g class="st0">
			
				<linearGradient id="SVGID_3_" gradientUnits="userSpaceOnUse" x1="0.8486" y1="499.9124" x2="999.8486" y2="499.9124" gradientTransform="matrix(6.123234e-17 -1 1 6.123234e-17 0.4362 1000.2607)">
				<stop  offset="0" style="stop-color:#00B9B2"/>
				<stop  offset="0.5" style="stop-color:#D5079B"/>
				<stop  offset="1" style="stop-color:#DC6900"/>
			</linearGradient>
			<rect x="0.8" y="0.4" class="st1" width="999" height="999"/>
			<path class="st2" d="M999.3,0.9v998H1.3V0.9H999.3 M1000.3-0.1H0.3v1000h1000V-0.1L1000.3-0.1z"/>
		</g>
	</g>
</g>
</svg>
